# xmcd
#
# Track frame offsets: 
#        150
#        12160
#        28810
#        48452
#
# Disc length: 952 seconds
#
# Revision: 1
# Processed by: cddbd v1.5.2PL0 Copyright (c) Steve Scherf et al.
# Submitted via: ExactAudioCopy v0.95b4
#
DISCID=2a03b604
DTITLE=Chuck Hall Band - The Chuck Hall Band
DYEAR=1994
DGENRE=Blues
TTITLE0=Right Stuff
TTITLE1=Young Boy
TTITLE2=The Boat Song
TTITLE3=Strong and True
EXTD=YEAR: 1994
EXTT0=
EXTT1=
EXTT2=
EXTT3=
PLAYORDER=
